<svg width="276" height="37" viewBox="0 0 276 37" fill="none" xmlns="http://www.w3.org/2000/svg">
<path d="M14.8972 23.1092C14.8972 23.1092 14.4089 23.2024 13.4325 23.3888C12.456 23.5808 11.8262 23.6232 11.5431 23.5159C11.26 23.4086 10.9942 23.2702 10.7457 23.1007C10.4915 22.9312 10.2662 22.7335 10.0697 22.5075C9.8675 22.2872 9.69417 22.0443 9.54972 21.7788C9.41105 21.5133 9.30705 21.2365 9.23771 20.9484C9.1626 20.666 9.12504 20.3751 9.12504 20.0757C9.13082 19.7819 9.16838 19.491 9.23771 19.2029C9.31282 18.9148 9.4226 18.638 9.56705 18.3725C9.70572 18.1127 9.87617 17.8698 10.0784 17.6438C10.2864 17.4235 10.5146 17.2286 10.7631 17.0591C11.0115 16.8897 11.2802 16.7541 11.5691 16.6524C11.8522 16.5451 12.144 16.4745 12.4444 16.4406C12.7507 16.4067 13.054 16.4095 13.3545 16.4491C13.6549 16.483 16.8905 15.9887 23.0613 14.9662C29.2379 13.9438 36.9023 12.9721 46.0545 12.0514C55.2009 11.1306 66.3262 10.255 79.4305 9.42461C92.5348 8.59421 106.783 7.78641 122.175 7.00121C137.568 6.21601 152.821 5.76409 167.936 5.64547C183.057 5.52684 196.907 5.95616 209.485 6.93342C222.058 7.91069 232.114 9.01506 239.655 10.2465C247.195 11.4723 253.738 12.4157 259.285 13.0766C264.832 13.7376 267.724 14.1019 267.96 14.1697C268.192 14.2375 268.408 14.3392 268.61 14.4748C268.813 14.6103 268.986 14.7741 269.13 14.9662C269.281 15.1639 269.393 15.3758 269.468 15.6017C269.544 15.8277 269.578 16.0621 269.572 16.305C269.572 16.5423 269.532 16.7739 269.451 16.9998C269.37 17.2314 269.252 17.4404 269.096 17.6269C268.946 17.8189 268.769 17.9799 268.567 18.1098C268.359 18.2398 268.137 18.3358 267.9 18.3979C267.663 18.4601 267.423 18.4827 267.18 18.4657C266.932 18.4488 266.695 18.3951 266.47 18.3047C266.244 18.2144 266.039 18.0901 265.854 17.9319C265.669 17.7737 265.514 17.5901 265.386 17.3811C265.265 17.1778 265.178 16.9575 265.126 16.7202C265.08 16.483 265.071 16.2457 265.1 16.0084C265.129 15.7712 265.196 15.5452 265.3 15.3306C265.41 15.1103 265.548 14.9154 265.716 14.7459C265.889 14.5708 266.086 14.4296 266.305 14.3222C266.519 14.2149 266.75 14.1415 266.998 14.1019C267.241 14.068 267.481 14.0709 267.718 14.1104C267.96 14.1556 268.189 14.2347 268.402 14.3477C268.622 14.4663 268.816 14.6132 268.983 14.7883C269.145 14.9634 269.278 15.1611 269.382 15.3814C269.48 15.6017 269.541 15.8305 269.564 16.0678C269.587 16.305 269.572 16.5423 269.52 16.7795C269.463 17.0111 269.367 17.2286 269.234 17.432C269.107 17.6353 268.948 17.8133 268.758 17.9658C268.573 18.1183 268.365 18.2398 268.134 18.3302C267.903 18.4149 267.666 18.4629 267.423 18.4742C267.175 18.4799 267.05 18.4827 267.05 18.4827C267.05 18.4827 264.28 18.155 258.739 17.4998C253.192 16.8388 246.686 16.2288 239.221 15.6695C231.762 15.1159 221.807 14.7346 209.355 14.5256C196.91 14.3166 183.193 14.2657 168.205 14.3731C153.217 14.4804 138.042 14.9069 122.678 15.6526C107.32 16.4039 93.1386 17.1636 80.1325 17.9319C67.1265 18.7002 56.0647 19.5023 46.9472 20.3384C37.8296 21.1687 30.7979 21.8268 25.8521 22.3127C20.9062 22.7985 17.3585 23.1459 15.2092 23.3549C13.0482 23.5695 11.8262 23.6232 11.5431 23.5159C11.26 23.4086 10.9942 23.2702 10.7457 23.1007C10.4915 22.9312 10.2662 22.7335 10.0697 22.5075C9.8675 22.2872 9.69417 22.0443 9.54972 21.7788C9.41105 21.5133 9.30705 21.2365 9.23771 20.9484C9.1626 20.666 9.12504 20.3751 9.12504 20.0757C9.13082 19.7819 9.16838 19.491 9.23771 19.2029C9.31282 18.9148 9.4226 18.638 9.56705 18.3725C9.70572 18.1127 9.87617 17.8698 10.0784 17.6438C10.2864 17.4235 10.5146 17.2286 10.7631 17.0591C11.0115 16.8897 11.2802 16.7541 11.5691 16.6524C11.8522 16.5451 12.144 16.4745 12.4444 16.4406C12.7507 16.4067 13.054 16.4095 13.3545 16.4491C13.6549 16.483 14.1894 16.8078 14.9578 17.4235C15.7263 18.0392 16.2059 18.381 16.3965 18.4488C16.5814 18.5222 16.7576 18.6154 16.9252 18.7284C17.0928 18.8414 17.243 18.9713 17.3759 19.1182C17.5088 19.2651 17.6214 19.426 17.7139 19.6012C17.8063 19.7763 17.8786 19.9599 17.9306 20.1519C17.9768 20.344 17.9999 20.5361 17.9999 20.7281C17.9999 20.9258 17.9739 21.1207 17.9219 21.3128C17.8757 21.5049 17.8034 21.6884 17.7052 21.8636C17.6128 22.0387 17.5001 22.1997 17.3672 22.3466C17.2285 22.4991 17.0754 22.629 16.9079 22.7363C16.7461 22.8493 16.5699 22.9397 16.3792 23.0075C16.1885 23.0809 15.9921 23.1289 15.7898 23.1515C15.5992 23.1741 15.4027 23.1741 15.2005 23.1515C14.9983 23.1233 14.8972 23.1092 14.8972 23.1092Z" fill="#5B48C5"/>
<path d="M70.0698 30.9669C70.0698 30.9669 67.9869 31.0319 63.821 31.1618C59.6494 31.2974 55.7782 31.272 52.2074 31.0856C48.6367 30.8992 45.9962 30.5743 44.2859 30.1111C42.5757 29.6479 41.553 29.3824 41.2179 29.3146C40.8885 29.2468 40.5707 29.1395 40.2645 28.9926C39.9583 28.8458 39.6752 28.6706 39.4152 28.4673C39.1494 28.2526 38.9154 28.0125 38.7131 27.747C38.5109 27.4815 38.3462 27.1935 38.2191 26.8828C38.0862 26.5777 37.9938 26.2614 37.9418 25.9337C37.8898 25.6061 37.8782 25.2756 37.9071 24.9423C37.9418 24.6147 38.014 24.2927 38.1238 23.9764C38.2336 23.6657 38.3809 23.3691 38.5658 23.0867C38.7449 22.8099 38.9587 22.5557 39.2072 22.3241C39.4556 22.0981 39.7272 21.9032 40.0218 21.7394C40.3165 21.5756 40.6285 21.4485 40.9579 21.3581C41.2814 21.2677 41.6137 21.2169 41.9545 21.2056C42.2954 21.1943 43.7341 20.8412 46.2706 20.1464C48.8071 19.4516 54.2846 18.6551 62.703 17.7569C71.1214 16.8644 81.9521 16.4322 95.195 16.4605C108.444 16.4944 119.916 16.2882 129.611 15.8419C139.306 15.39 144.275 15.1782 144.518 15.2064C144.766 15.2346 145 15.2996 145.22 15.4013C145.44 15.503 145.639 15.6385 145.818 15.808C145.997 15.9718 146.142 16.1611 146.251 16.3757C146.367 16.5904 146.445 16.8164 146.485 17.0536C146.52 17.2909 146.517 17.5253 146.477 17.7569C146.436 17.9942 146.358 18.2201 146.243 18.4348C146.127 18.6438 145.977 18.8302 145.792 18.994C145.613 19.1578 145.414 19.2906 145.194 19.3923C144.969 19.4883 144.735 19.5504 144.492 19.5787C144.244 19.6013 144.001 19.5843 143.764 19.5278C143.527 19.477 143.302 19.3894 143.088 19.2652C142.88 19.1409 142.698 18.9855 142.542 18.7991C142.386 18.6184 142.262 18.415 142.169 18.189C142.083 17.9631 142.034 17.7315 142.022 17.4942C142.01 17.2513 142.036 17.0169 142.1 16.7909C142.169 16.5593 142.273 16.3447 142.412 16.147C142.551 15.9492 142.718 15.7769 142.915 15.6301C143.111 15.4889 143.328 15.3787 143.565 15.2996C143.796 15.2262 144.033 15.1923 144.275 15.1979C144.524 15.1979 144.764 15.2375 144.995 15.3166C145.226 15.3956 145.44 15.5086 145.636 15.6555C145.832 15.7967 145.997 15.969 146.13 16.1724C146.269 16.3701 146.37 16.5847 146.433 16.8164C146.497 17.048 146.52 17.2852 146.503 17.5281C146.491 17.7654 146.439 17.9942 146.347 18.2145C146.254 18.4404 146.127 18.6438 145.965 18.8245C145.804 19.0053 145.619 19.1578 145.411 19.2821C145.197 19.4007 144.969 19.4855 144.726 19.5363C144.489 19.5872 144.371 19.6126 144.371 19.6126C144.371 19.6126 139.523 19.8357 129.828 20.282C120.127 20.7339 108.779 21.5784 95.7843 22.8155C82.7898 24.0583 72.251 25.1542 64.1677 26.1032C56.0728 27.0579 50.3065 27.8487 46.8687 28.4758C43.4366 29.1028 41.553 29.3824 41.2179 29.3146C40.8885 29.2468 40.5707 29.1395 40.2645 28.9926C39.9583 28.8458 39.6752 28.6706 39.4152 28.4673C39.1494 28.2526 38.9154 28.0125 38.7131 27.747C38.5109 27.4815 38.3462 27.1935 38.2191 26.8828C38.0862 26.5777 37.9938 26.2614 37.9418 25.9337C37.8898 25.6061 37.8782 25.2756 37.9071 24.9423C37.9418 24.6147 38.014 24.2927 38.1238 23.9764C38.2336 23.6657 38.3809 23.3691 38.5658 23.0867C38.7449 22.8099 38.9587 22.5557 39.2072 22.3241C39.4556 22.0981 39.7272 21.9032 40.0218 21.7394C40.3165 21.5756 40.6285 21.4485 40.9579 21.3581C41.2814 21.2677 41.6137 21.2169 41.9545 21.2056C42.2954 21.1943 43.321 21.5134 45.0313 22.1631C46.7415 22.8127 49.3214 23.3493 52.7708 23.773C56.2202 24.1967 60.0105 24.6881 64.1417 25.2474C68.2671 25.8066 70.428 26.1032 70.6245 26.1371C70.8209 26.171 71.0116 26.2275 71.1965 26.3066C71.3814 26.3857 71.5518 26.4873 71.7078 26.6116C71.8696 26.7302 72.0141 26.8658 72.1412 27.0183C72.2625 27.1709 72.3665 27.3375 72.4532 27.5183C72.5341 27.699 72.5947 27.8854 72.6352 28.0775C72.6699 28.2696 72.6843 28.4616 72.6785 28.6537C72.667 28.8458 72.6323 29.0378 72.5745 29.2299C72.5167 29.4163 72.4359 29.5942 72.3318 29.7637C72.2278 29.9332 72.1065 30.0857 71.9678 30.2213C71.8234 30.3625 71.6674 30.4868 71.4998 30.5941C71.3265 30.6958 71.1445 30.7749 70.9538 30.8314C70.7632 30.8935 70.5667 30.9302 70.3645 30.9415C70.168 30.9585 70.0698 30.9669 70.0698 30.9669Z" fill="#5B48C5"/>
</svg>
