<svg width="109" height="17" viewBox="0 0 109 17" fill="none" xmlns="http://www.w3.org/2000/svg">
<path d="M32.1781 15.7696C32.1781 15.7696 30.0952 15.8346 25.9293 15.9645C21.7577 16.1001 17.8865 16.0747 14.3158 15.8882C10.745 15.7018 8.10453 15.377 6.39428 14.9138C4.68402 14.4506 3.66133 14.1851 3.32621 14.1173C2.99687 14.0495 2.67909 13.9422 2.37286 13.7953C2.06663 13.6484 1.78351 13.4733 1.52351 13.27C1.25772 13.0553 1.02372 12.8152 0.821491 12.5497C0.619265 12.2842 0.454595 11.9961 0.327481 11.6854C0.194589 11.3804 0.102143 11.064 0.0501421 10.7364C-0.00185896 10.4088 -0.0134122 10.0783 0.0154772 9.74502C0.0501446 9.41738 0.122368 9.09539 0.232148 8.77905C0.341929 8.46836 0.489263 8.17179 0.674156 7.88935C0.853271 7.61255 1.06705 7.35835 1.3155 7.12674C1.56395 6.90078 1.83551 6.70589 2.13019 6.54207C2.42486 6.37826 2.73686 6.25115 3.0662 6.16077C3.38977 6.07039 3.722 6.01955 4.06289 6.00825C4.40379 5.99695 5.84249 5.64389 8.37898 4.94907C10.9155 4.25425 16.3929 3.45775 24.8113 2.55957C33.2297 1.66704 44.0604 1.2349 57.3033 1.26314C70.5521 1.29704 82.0241 1.09085 91.7194 0.644584C101.415 0.192668 106.384 -0.0191667 106.626 0.00907804C106.875 0.0373227 107.109 0.102286 107.328 0.203967C107.548 0.305648 107.747 0.441222 107.926 0.61069C108.106 0.774509 108.25 0.963749 108.36 1.17841C108.475 1.39307 108.553 1.61903 108.594 1.85628C108.628 2.09354 108.626 2.32797 108.585 2.55957C108.545 2.79683 108.467 3.02279 108.351 3.23745C108.236 3.44646 108.085 3.63287 107.9 3.79669C107.721 3.96051 107.522 4.09326 107.302 4.19494C107.077 4.29097 106.843 4.35311 106.6 4.38136C106.352 4.40395 106.109 4.38701 105.872 4.33052C105.635 4.27968 105.41 4.19212 105.196 4.06784C104.988 3.94356 104.806 3.78822 104.65 3.6018C104.494 3.42104 104.37 3.21768 104.278 2.99172C104.191 2.76576 104.142 2.53415 104.13 2.2969C104.119 2.05399 104.145 1.81956 104.208 1.5936C104.278 1.362 104.382 1.14734 104.52 0.949627C104.659 0.751914 104.827 0.579621 105.023 0.432748C105.219 0.291525 105.436 0.181371 105.673 0.102286C105.904 0.0288498 106.141 -0.00504369 106.384 0.000605245C106.632 0.000605245 106.872 0.0401473 107.103 0.119232C107.334 0.198318 107.548 0.311297 107.744 0.458169C107.941 0.599393 108.106 0.771685 108.238 0.975047C108.377 1.17276 108.478 1.38742 108.542 1.61903C108.605 1.85063 108.628 2.08789 108.611 2.33079C108.6 2.56805 108.548 2.79683 108.455 3.01714C108.363 3.2431 108.236 3.44646 108.074 3.62722C107.912 3.80799 107.727 3.96051 107.519 4.08479C107.305 4.20341 107.077 4.28815 106.834 4.33899C106.597 4.38983 106.479 4.41525 106.479 4.41525C106.479 4.41525 101.631 4.63838 91.9361 5.08465C82.235 5.53656 70.8872 6.38108 57.8927 7.6182C44.8982 8.86096 34.3593 9.95686 26.276 10.9059C18.1812 11.8605 12.4148 12.6514 8.977 13.2784C5.54492 13.9055 3.66133 14.1851 3.32621 14.1173C2.99687 14.0495 2.67909 13.9422 2.37286 13.7953C2.06663 13.6484 1.78351 13.4733 1.52351 13.27C1.25772 13.0553 1.02372 12.8152 0.821491 12.5497C0.619265 12.2842 0.454595 11.9961 0.327481 11.6854C0.194589 11.3804 0.102143 11.064 0.0501421 10.7364C-0.00185896 10.4088 -0.0134122 10.0783 0.0154772 9.74502C0.0501446 9.41738 0.122368 9.09539 0.232148 8.77905C0.341929 8.46836 0.489263 8.17179 0.674156 7.88935C0.853271 7.61255 1.06705 7.35835 1.3155 7.12674C1.56395 6.90078 1.83551 6.70589 2.13019 6.54207C2.42486 6.37826 2.73686 6.25115 3.0662 6.16077C3.38977 6.07039 3.722 6.01955 4.06289 6.00825C4.40379 5.99695 5.42937 6.31612 7.13962 6.96574C8.84988 7.61537 11.4297 8.15202 14.8791 8.57569C18.3285 8.99936 22.1188 9.49082 26.25 10.0501C30.3754 10.6093 32.5364 10.9059 32.7328 10.9398C32.9293 10.9737 33.1199 11.0302 33.3048 11.1092C33.4897 11.1883 33.6602 11.29 33.8162 11.4143C33.978 11.5329 34.1224 11.6685 34.2495 11.821C34.3709 11.9735 34.4749 12.1402 34.5615 12.3209C34.6424 12.5017 34.7031 12.6881 34.7435 12.8802C34.7782 13.0722 34.7926 13.2643 34.7869 13.4564C34.7753 13.6484 34.7406 13.8405 34.6829 14.0326C34.6251 14.219 34.5442 14.3969 34.4402 14.5664C34.3362 14.7359 34.2149 14.8884 34.0762 15.024C33.9317 15.1652 33.7757 15.2895 33.6082 15.3968C33.4348 15.4985 33.2528 15.5776 33.0622 15.634C32.8715 15.6962 32.675 15.7329 32.4728 15.7442C32.2764 15.7611 32.1781 15.7696 32.1781 15.7696Z" fill="#5B48C5"/>
</svg>
